<?xml version="1.0" encoding="utf-8"?>
<!-- Generator: Adobe Illustrator 25.0.0, SVG Export Plug-In . SVG Version: 6.00 Build 0)  -->
<svg version="1.1" id="Capa_1" xmlns="http://www.w3.org/2000/svg" xmlns:xlink="http://www.w3.org/1999/xlink" x="0px" y="0px"
	 viewBox="0 0 109.8 109.8" style="enable-background:new 0 0 109.8 109.8;" xml:space="preserve">
<style type="text/css">
	.st0{fill:#E59210;}
</style>
<g id="Capa_2_1_">
	<g id="Capa_1-2">
		<g>
			<path d="M72.4,94.5c-1.7,0-3.2-0.6-4.4-1.8l-35-35c-1.2-1.2-1.8-2.7-1.8-4.4s0.6-3.2,1.8-4.4l35-35c1.1-1.1,2.7-1.8,4.3-1.8
				c0.9,0,1.7,0.2,2.6,0.5c1.5,0.7,2.6,2,3.2,3.5c0.6,1.6,0.5,3.3-0.2,4.7L63.6,52.1c-0.4,0.8-0.4,1.8,0,2.6L78,85.9
				c1.1,2.3,0.6,5.1-1.2,6.9C75.6,93.9,74.1,94.5,72.4,94.5z"/>
			<path class="st0" d="M72.4,13.8c0.7,0,1.3,0.1,1.9,0.4c2.3,1.1,3.4,3.9,2.3,6.2L62.2,51.5c-0.6,1.2-0.6,2.7,0,3.9l14.4,31.1
				c0.8,1.7,0.5,3.8-0.9,5.2c-0.9,0.9-2.1,1.4-3.3,1.4c-1.2,0-2.4-0.5-3.3-1.4l-35-35c-1.8-1.8-1.8-4.8,0-6.6l35-35
				C69.9,14.3,71.1,13.8,72.4,13.8 M72.4,10.8c-2,0-4,0.8-5.4,2.2L32,48c-3,3-3,7.9,0,10.8l35,35c1.4,1.4,3.4,2.2,5.4,2.2
				s4-0.8,5.4-2.2c2.3-2.3,2.9-5.7,1.5-8.6L64.9,54.1l0,0l0,0c-0.2-0.4-0.2-0.9,0-1.2l0,0l0,0l14.4-31.1c0.9-1.8,0.9-3.9,0.2-5.9
				c-0.7-1.9-2.1-3.4-3.9-4.3l0,0l0,0C74.5,11,73.5,10.8,72.4,10.8L72.4,10.8z"/>
		</g>
	</g>
</g>
</svg>
