<?xml version="1.0" encoding="utf-8"?>
<!-- Generator: Adobe Illustrator 25.0.0, SVG Export Plug-In . SVG Version: 6.00 Build 0)  -->
<svg version="1.1" id="Capa_1" xmlns="http://www.w3.org/2000/svg" xmlns:xlink="http://www.w3.org/1999/xlink" x="0px" y="0px"
	 viewBox="0 0 188.9 188.9" style="enable-background:new 0 0 188.9 188.9;" xml:space="preserve">
<style type="text/css">
	.st0{fill-rule:evenodd;clip-rule:evenodd;fill:#010202;stroke:#000000;stroke-width:0.4877;stroke-miterlimit:22.9256;}
	.st1{fill-rule:evenodd;clip-rule:evenodd;fill:#FFFFFF;}
	.st2{fill-rule:evenodd;clip-rule:evenodd;}
</style>
<rect x="13.2" y="13.2" class="st0" width="162.6" height="162.6"/>
<path class="st1" d="M53.6,91.9l-0.1-9.3c0.7-0.2,1.7-0.5,2.9-0.4c0.9,0.1,1.4,0.9,1.4,1.8l0.1,5C57.9,91.4,56.2,92.1,53.6,91.9
	L53.6,91.9z M53.6,106.9l-0.1-11l2.7,0l1.9,11l3.6,0L59.2,94c0.7-0.7,2-1.9,2-5.4c0-1.7,0.1-5.3-0.2-6.6c-0.4-1.9-1.1-3.7-3.1-4.2
	c-1.8-0.5-5.7,0.5-7.5,0.9l0,28.1L53.6,106.9z"/>
<path class="st1" d="M36.5,86.6l0.1,16.1c1,7,10,5,10.4-0.6l0.1-10.9l-5.3,0.6l0.1,3.9l2,0l0,5.1c-0.4,3.8-3.5,2.7-4,1.4
	c-0.4-4.3-0.1-9.2-0.1-13.6c0-1.2-0.1-3,0.7-3.9c1-1.1,2.3-0.9,3.2,0.2c0.6,0.7,0.4,3.3,0.4,4.3l3.2-0.6l0-4.2
	c-0.1-0.7-0.3-1.4-0.6-2C43.8,77.4,36.8,81.2,36.5,86.6z"/>
<polygon class="st1" points="65.2,76.7 68.1,76.2 68.1,106.9 65.2,106.9 "/>
<polygon class="st1" points="71.6,75.9 74.8,75.6 74.8,102.4 80.7,102.4 80.7,106.9 74.8,106.9 72.2,106.9 71.6,106.9 "/>
<polygon class="st1" points="83.5,75 86.6,75 86.6,102.4 92.5,102.4 92.5,106.9 86.6,106.9 84.1,106.9 83.5,106.9 "/>
<path class="st1" d="M98.5,90.1l-0.1-10.5c1.1,0,3.1-0.1,3.8,0.9c0.3,0.5,0.5,1.2,0.5,1.7l0.1,5C102.9,89.6,101.2,90.3,98.5,90.1
	L98.5,90.1z M98.6,106.9l-0.1-12.1l2.7,0l1.9,12l3.6,0l-2.6-14.2c0.7-0.7,2-1.9,2-5.4c0-1.7,0.1-5.8-0.2-7.1c-0.4-1.9-1.9-4.5-3.9-5
	c-1.8-0.5-4.5-0.4-6.7-0.3l0,31.9L98.6,106.9z"/>
<path class="st1" d="M114.7,75.2c3,0.1,5.4,4.1,5.4,6.8v18.5c0,2.8-2.1,7.1-5.4,7.1c-2.6,0-4.7-3.1-5.3-5.8
	c-0.3-1.1-0.2-2.2-0.2-3.4V81.7c0-0.9,0-1.7,0.3-2.6C110.1,77.3,111.8,75.1,114.7,75.2L114.7,75.2z M114.4,79.7
	c-1.2,0-2.1,1.3-2.1,2.4v18.1c0,1.1,0.9,2.4,2.1,2.4c1.2,0,2.1-1.1,2.1-2.3V82C116.6,80.8,115.6,79.7,114.4,79.7z"/>
<path class="st1" d="M128.7,76.7c2.9,0.1,5.4,4.3,5.4,7v16.6c0,0.9,0,1.3-0.2,2.2c-0.5,2-2.5,5-5.2,5c-1.6,0-3.2-1.1-4.1-2.5
	c-1-1.4-1.4-2.6-1.4-4.3V84.7c0-1.2-0.2-2.7,0.2-3.9C124,79.1,125.7,76.6,128.7,76.7L128.7,76.7z M128.5,81.1
	c-1.2,0-2.1,1.3-2.1,2.4v16.8c0,1.1,0.9,2.4,2.1,2.4c1.2,0,2.1-1.1,2.1-2.3V83.8C130.6,82.7,129.6,81.1,128.5,81.1z"/>
<polygon class="st1" points="137.2,107 137.2,78.6 141.9,79.4 145.2,98.8 148.4,80.8 153,81.8 153,107 149.7,107 149.7,91.3 
	146.8,106.9 144,106.9 140.7,90.2 140.7,107.1 "/>
<path class="st2" d="M53.3,91.6l-0.1-9.3c0.7-0.2,1.7-0.5,2.9-0.4c0.9,0.1,1.4,0.9,1.4,1.8l0.1,5C57.7,91.1,55.9,91.8,53.3,91.6
	L53.3,91.6z M53.4,106.6l-0.1-11l2.7,0l1.9,11l3.6,0l-2.6-12.8c0.7-0.7,2-1.9,2-5.4c0-1.7,0.1-5.3-0.2-6.6c-0.4-1.9-1.1-3.7-3.1-4.2
	c-1.8-0.5-5.7,0.5-7.5,0.9l0,28.1L53.4,106.6z"/>
<path class="st2" d="M36.3,86.3l0.1,16.1c1,7,10,5,10.4-0.6l0.1-10.9l-5.3,0.6l0.1,3.9l2,0l0,5.1c-0.4,3.8-3.5,2.7-4,1.4
	c-0.4-4.3-0.1-9.2-0.1-13.6c0-1.2-0.1-3,0.7-3.9c1-1.1,2.3-0.9,3.2,0.2c0.6,0.7,0.4,3.3,0.4,4.3l3.2-0.6l0-4.2
	c-0.1-0.7-0.3-1.4-0.6-2C43.5,77.1,36.6,80.9,36.3,86.3z"/>
<polygon class="st2" points="64.9,76.4 67.8,75.9 67.8,106.6 64.9,106.6 "/>
<polygon class="st2" points="71.3,75.6 74.5,75.3 74.5,102 80.4,102 80.4,106.6 74.5,106.6 72,106.6 71.3,106.6 "/>
<polygon class="st2" points="83.2,74.7 86.3,74.7 86.3,102 92.3,102 92.3,106.6 86.3,106.6 83.8,106.6 83.2,106.6 "/>
<path class="st2" d="M98.3,89.8l-0.1-10.5c1.1,0,3.1-0.1,3.8,0.9c0.3,0.5,0.5,1.2,0.5,1.7l0.1,5C102.6,89.3,100.9,90,98.3,89.8
	L98.3,89.8z M98.3,106.6l-0.1-12.1l2.7,0l1.9,12l3.6,0l-2.6-14.2c0.7-0.7,2-1.9,2-5.4c0-1.7,0.1-5.8-0.2-7.1c-0.4-1.9-1.9-4.5-3.9-5
	c-1.8-0.5-4.5-0.4-6.7-0.3l0,31.9L98.3,106.6z"/>
<path class="st2" d="M114.4,74.9c3,0.1,5.4,4.1,5.4,6.8v18.5c0,2.8-2.1,7.1-5.4,7.1c-2.6,0-4.7-3.1-5.3-5.8
	c-0.3-1.1-0.2-2.2-0.2-3.4V81.4c0-0.9,0-1.7,0.3-2.6C109.9,77,111.5,74.8,114.4,74.9L114.4,74.9z M114.2,79.4
	c-1.2,0-2.1,1.3-2.1,2.4v18.1c0,1.1,0.9,2.4,2.1,2.4c1.2,0,2.1-1.1,2.1-2.3V81.7C116.3,80.5,115.4,79.4,114.2,79.4z"/>
<path class="st2" d="M128.4,76.4c2.9,0.1,5.4,4.3,5.4,7v16.6c0,0.9,0,1.3-0.2,2.2c-0.5,2-2.5,5-5.2,5c-1.6,0-3.2-1.1-4.1-2.5
	c-1-1.4-1.4-2.6-1.4-4.3V84.4c0-1.2-0.2-2.7,0.2-3.9C123.7,78.8,125.4,76.4,128.4,76.4L128.4,76.4z M128.2,80.8
	c-1.2,0-2.1,1.3-2.1,2.4V100c0,1.1,0.9,2.4,2.1,2.4c1.2,0,2.1-1.1,2.1-2.3V83.5C130.3,82.4,129.4,80.8,128.2,80.8z"/>
<polygon class="st2" points="137,106.7 137,78.3 141.6,79.1 144.9,98.5 148.1,80.5 152.7,81.5 152.7,106.7 149.5,106.7 149.5,91 
	146.6,106.6 143.8,106.6 140.5,89.9 140.5,106.8 "/>
<path class="st1" d="M53,91.3L53,82c0.7-0.2,1.7-0.5,2.9-0.4c0.9,0.1,1.4,0.9,1.4,1.8l0.1,5C57.4,90.9,55.6,91.5,53,91.3L53,91.3z
	 M53.1,106.3l-0.1-11l2.7,0l1.9,11l3.6,0l-2.6-12.8c0.7-0.7,2-1.9,2-5.4c0-1.7,0.1-5.3-0.2-6.6c-0.4-1.9-1.1-3.7-3.1-4.2
	c-1.8-0.5-5.7,0.5-7.5,0.9l0,28.1L53.1,106.3z"/>
<path class="st1" d="M36,86l0.1,16.1c1,7,10,5,10.4-0.6l0.1-10.9l-5.3,0.6l0.1,3.9l2,0l0,5.1c-0.4,3.8-3.5,2.7-4,1.4
	c-0.4-4.3-0.1-9.2-0.1-13.6c0-1.2-0.1-3,0.7-3.9c1-1.1,2.3-0.9,3.2,0.2c0.6,0.7,0.4,3.3,0.4,4.3l3.2-0.6l0-4.2
	c-0.1-0.7-0.3-1.4-0.6-2C43.2,76.9,36.3,80.6,36,86z"/>
<polygon class="st1" points="64.6,76.1 67.5,75.7 67.5,106.3 64.6,106.3 "/>
<polygon class="st1" points="71,75.3 74.2,75 74.2,101.8 80.1,101.8 80.1,106.4 74.2,106.4 71.7,106.4 71,106.4 "/>
<polygon class="st1" points="82.9,74.4 86,74.4 86,101.8 92,101.8 92,106.4 86,106.4 83.5,106.4 82.9,106.4 "/>
<path class="st1" d="M98,89.5L97.9,79c1.1,0,3.1-0.1,3.8,0.9c0.3,0.5,0.5,1.2,0.5,1.7l0.1,5C102.3,89,100.6,89.7,98,89.5L98,89.5z
	 M98,106.3L98,94.3l2.7,0l1.9,12l3.6,0l-2.6-14.2c0.7-0.7,2-1.9,2-5.4c0-1.7,0.1-5.8-0.2-7.1c-0.4-1.9-1.9-4.5-3.9-5
	c-1.8-0.5-4.5-0.4-6.7-0.3l0,31.9L98,106.3z"/>
<path class="st1" d="M114.1,74.6c3,0.1,5.4,4.1,5.4,6.8v18.5c0,2.8-2.1,7.1-5.4,7.1c-2.6,0-4.7-3.1-5.3-5.8
	c-0.3-1.1-0.2-2.2-0.2-3.4V81.1c0-0.9,0-1.7,0.3-2.6C109.6,76.7,111.2,74.5,114.1,74.6L114.1,74.6z M113.9,79.1
	c-1.2,0-2.1,1.3-2.1,2.4v18.1c0,1.1,0.9,2.4,2.1,2.4c1.2,0,2.1-1.1,2.1-2.3V81.4C116,80.2,115.1,79.1,113.9,79.1z"/>
<path class="st1" d="M128.1,76.1c2.9,0.1,5.4,4.3,5.4,7v16.6c0,0.9,0,1.3-0.2,2.2c-0.5,2-2.5,5-5.2,5c-1.6,0-3.2-1.1-4.1-2.5
	c-1-1.4-1.4-2.6-1.4-4.3V84.1c0-1.2-0.2-2.7,0.2-3.9C123.4,78.5,125.1,76.1,128.1,76.1L128.1,76.1z M127.9,80.5
	c-1.2,0-2.1,1.3-2.1,2.4v16.8c0,1.1,0.9,2.4,2.1,2.4c1.2,0,2.1-1.1,2.1-2.3V83.2C130,82.1,129.1,80.5,127.9,80.5z"/>
<polygon class="st1" points="136.7,106.5 136.7,78 141.3,78.8 144.6,98.3 147.8,80.2 152.4,81.2 152.4,106.4 149.2,106.4 
	149.2,90.8 146.3,106.3 143.5,106.3 140.2,89.6 140.2,106.5 "/>
<polygon class="st1" points="91.7,52.7 93.6,52.7 93.6,57.9 95.9,57.9 95.9,52.7 97.8,52.7 97.8,65 95.9,65 95.9,59.8 93.6,59.8 
	93.6,65 91.7,65 "/>
<polygon class="st1" points="85.4,53 87.3,52.8 89.2,52.7 89.3,54.5 87.4,54.6 88.2,65.1 86.4,65.3 85.6,54.8 83.6,54.9 83.5,53.1 
	"/>
<polygon class="st1" points="100.5,54.7 100.7,52.8 102.5,53 105.9,53.2 105.7,55 102.3,54.8 102.1,58.2 103.9,58.4 103.7,60.2 
	101.9,60.1 101.7,63.5 105.1,63.7 104.9,65.5 101.6,65.3 99.7,65.2 99.9,63.3 "/>
<polygon class="st2" points="91.5,52.5 93.4,52.5 93.4,57.7 95.7,57.7 95.7,52.5 97.6,52.5 97.6,64.8 95.7,64.8 95.7,59.6 
	93.4,59.6 93.4,64.8 91.5,64.8 "/>
<polygon class="st2" points="85.2,52.8 87.1,52.6 89,52.5 89.1,54.3 87.2,54.4 88,64.9 86.2,65.1 85.4,54.6 83.4,54.7 83.3,52.9 "/>
<polygon class="st2" points="100.3,54.5 100.5,52.6 102.3,52.8 105.7,53 105.5,54.9 102.1,54.6 101.9,58 103.7,58.2 103.5,60 
	101.7,59.9 101.5,63.3 104.9,63.5 104.7,65.3 101.4,65.1 99.5,65 99.7,63.1 "/>
<polygon class="st1" points="91.3,52.3 93.2,52.3 93.2,57.5 95.5,57.5 95.5,52.3 97.4,52.3 97.4,64.6 95.5,64.6 95.5,59.4 
	93.2,59.4 93.2,64.6 91.3,64.6 "/>
<polygon class="st1" points="85,52.6 86.8,52.4 88.8,52.3 88.9,54.1 87,54.2 87.8,64.7 86,64.9 85.2,54.4 83.2,54.5 83.1,52.7 "/>
<polygon class="st1" points="100.1,54.2 100.3,52.4 102.1,52.6 105.5,52.8 105.3,54.6 101.9,54.4 101.7,57.8 103.5,58 103.3,59.8 
	101.5,59.7 101.3,63.1 104.7,63.3 104.5,65.1 101.1,64.9 99.3,64.7 99.5,62.9 "/>
<path class="st1" d="M83.6,128.1c0.3,0,0.5,0.2,0.5,0.5l0,0c0,0.3-0.2,0.5-0.5,0.5c-3.8,0.2-38.8,0.2-41.8-0.6
	C44.9,127.8,79.7,127.9,83.6,128.1z"/>
<path class="st1" d="M104.7,128.1c-0.3,0-0.6,0.2-0.6,0.5l0,0c0,0.3,0.2,0.5,0.6,0.5c3.8,0.2,38.8,0.2,41.8-0.6
	C143.4,127.8,108.6,127.9,104.7,128.1z"/>
<path class="st1" d="M86.7,127L86.7,127l0-0.2l0.9-1c0.4-0.4,0.6-0.7,0.8-1c0.1-0.2,0.2-0.4,0.2-0.6c0-0.2-0.1-0.4-0.2-0.6
	c-0.1-0.2-0.3-0.2-0.6-0.2c-0.2,0-0.3,0-0.4,0.1c-0.1,0-0.2,0.1-0.2,0.2c0,0.1-0.1,0.2-0.2,0.5l0,0h-0.1l0,0c0-0.3,0.1-0.5,0.1-0.8
	c0.2-0.2,0.3-0.3,0.5-0.3s0.3-0.1,0.5-0.1c0.2,0,0.4,0,0.6,0.1c0.2,0.1,0.3,0.2,0.4,0.4s0.2,0.4,0.2,0.6c0,0.2,0,0.3-0.1,0.5
	c-0.1,0.2-0.2,0.3-0.3,0.5c-0.1,0.2-0.3,0.3-0.5,0.6l-0.9,0.9h1.1c0.3,0,0.6,0,0.9,0l0,0c0,0.1,0,0.1,0,0.2c0,0.1,0,0.2,0,0.2l0,0
	c-0.1,0-0.3,0-0.6,0c-0.3,0-0.5,0-0.6,0c-0.2,0-0.4,0-0.7,0C87,127,86.8,127,86.7,127L86.7,127z M89.7,125.3c0-0.3,0-0.6,0.1-0.9
	c0-0.3,0.1-0.5,0.2-0.7c0.1-0.2,0.3-0.4,0.4-0.5c0.2-0.1,0.4-0.2,0.6-0.2c0.2,0,0.5,0.1,0.7,0.2c0.2,0.1,0.3,0.3,0.4,0.6
	c0.1,0.3,0.1,0.6,0.1,1.1c0,0.8-0.1,1.3-0.3,1.7c-0.2,0.4-0.6,0.5-1,0.5c-0.2,0-0.4,0-0.5-0.1c-0.2-0.1-0.3-0.2-0.4-0.4
	c-0.1-0.2-0.2-0.4-0.2-0.6C89.7,125.8,89.7,125.5,89.7,125.3L89.7,125.3z M90.2,125.1c0,0.4,0,0.7,0.1,1c0.1,0.3,0.1,0.5,0.3,0.6
	c0.1,0.1,0.3,0.2,0.4,0.2c0.2,0,0.3-0.1,0.4-0.2c0.1-0.1,0.2-0.3,0.2-0.6c0.1-0.3,0.1-0.6,0.1-1c0-0.6-0.1-1.1-0.2-1.4
	c-0.1-0.3-0.3-0.5-0.6-0.5c-0.2,0-0.4,0.1-0.6,0.4C90.2,123.8,90.2,124.3,90.2,125.1z"/>
<path class="st1" d="M87.6,117.2c0.1,0,5.6,1.9,5.6,6.5c0,0.1-0.1,1.1-0.1,1.2c-0.2,0.3-0.6,0.6-0.3,0.5c0.8-0.1,0.9-0.4,1.2-0.5
	c0.3,0.1,0.4,0.4,1.2,0.5c0.3,0.1-0.1-0.2-0.3-0.5c0-0.1-0.1-1-0.1-1.2c-0.1-4.6,5.4-6.5,5.6-6.5c-1.1-1.2-2.2-1.5-3.5-0.3
	c-0.8,0.7-2.1,2.4-2.3,4.5c0,0.1,0,0.6-0.1,0.2c-0.5-2.2,1.2-4.8,2.7-6.2c-0.7-0.9-0.8-0.9-2-1c-0.1-0.7-0.8-1.1-1.1-1.3
	c-0.1,0-0.1-0.1-0.2-0.1c-0.1,0-0.2,0.1-0.3,0.2c-0.3,0.2-0.9,0.7-1,1.2c-1.2,0.1-1.2,0.1-2,1c1.5,1.4,3.2,3.9,2.7,6.2
	c-0.1,0.3-0.1-0.1-0.1-0.2c-0.2-2.1-1.5-3.8-2.3-4.5C89.9,115.7,88.7,116,87.6,117.2z"/>
<path class="st1" d="M92.2,122.5c-0.8-0.6-1.4-1.5-2.9-1.5c-0.2,0-0.9,0-1,0.2c0,0,0,0.1-0.1,0.1c-0.2,0.4-0.6,0.7-1.1,0.7
	c-0.6,0-1.3-0.6-1.3-1.4c0-0.5,0.3-1,0.7-1.2l0,0l0,0C88.7,118,92.1,120.6,92.2,122.5z"/>
<path class="st1" d="M95.8,122.5c0.8-0.6,1.4-1.5,2.9-1.5c0.2,0,0.9,0,1,0.2c0,0,0,0.1,0.1,0.1c0.2,0.4,0.6,0.7,1.1,0.7
	c0.6,0,1.3-0.6,1.3-1.4c0-0.5-0.3-1-0.7-1.2l0,0l0,0C99.3,118,95.9,120.6,95.8,122.5z"/>
<path class="st1" d="M93.8,125.9h0.5c0.2,0,0.3,0.1,0.3,0.3v1.6c0.3,0.2,0.4,0.5,0.4,0.8c0,0.5-0.4,1-1,1c-0.6,0-1-0.4-1-1
	c0-0.3,0.2-0.6,0.4-0.8v-1.6C93.5,126,93.6,125.9,93.8,125.9z"/>
<path class="st1" d="M87.5,128.4h4.6c0.1,0,0.2,0.1,0.2,0.2v0.4c0,0.1-0.1,0.2-0.2,0.2h-4.6c-0.1,0-0.2-0.1-0.2-0.2v-0.4
	C87.4,128.5,87.5,128.4,87.5,128.4z"/>
<path class="st1" d="M96,128.4h4.6c0.1,0,0.2,0.1,0.2,0.2v0.4c0,0.1-0.1,0.2-0.2,0.2H96c-0.1,0-0.2-0.1-0.2-0.2v-0.4
	C95.8,128.5,95.9,128.4,96,128.4z"/>
<path class="st1" d="M99,130.1c0.2,0,0.4,0.2,0.4,0.4c0,0.2-0.2,0.4-0.4,0.4c-0.1,0-0.3-0.1-0.3-0.2h-9.2c-0.1,0.1-0.2,0.2-0.3,0.2
	c-0.2,0-0.4-0.2-0.4-0.4c0-0.2,0.2-0.4,0.4-0.4c0.1,0,0.3,0.1,0.3,0.2h9.2C98.7,130.2,98.8,130.1,99,130.1z"/>
<path class="st1" d="M96,127L96,127l0-0.2l0.9-1c0.4-0.4,0.6-0.7,0.8-1c0.1-0.2,0.2-0.4,0.2-0.6c0-0.2-0.1-0.4-0.2-0.6
	c-0.1-0.2-0.3-0.2-0.6-0.2c-0.2,0-0.3,0-0.4,0.1c-0.1,0-0.2,0.1-0.2,0.2c0,0.1-0.1,0.2-0.2,0.5l0,0h-0.1l0,0c0-0.3,0.1-0.5,0.1-0.8
	c0.2-0.2,0.3-0.3,0.5-0.3s0.3-0.1,0.5-0.1c0.2,0,0.4,0,0.6,0.1s0.3,0.2,0.4,0.4c0.1,0.2,0.2,0.4,0.2,0.6c0,0.2,0,0.3-0.1,0.5
	c-0.1,0.2-0.2,0.3-0.3,0.5c-0.1,0.2-0.3,0.3-0.5,0.6l-0.9,0.9h1.1c0.3,0,0.6,0,0.9,0l0,0c0,0.1,0,0.1,0,0.2c0,0.1,0,0.2,0,0.2l0,0
	c-0.1,0-0.3,0-0.6,0c-0.3,0-0.5,0-0.6,0c-0.2,0-0.4,0-0.7,0C96.3,127,96.1,127,96,127L96,127z M98.9,125.3c0-0.3,0-0.6,0.1-0.9
	c0-0.3,0.1-0.5,0.2-0.7c0.1-0.2,0.3-0.4,0.4-0.5c0.2-0.1,0.4-0.2,0.6-0.2c0.2,0,0.5,0.1,0.7,0.2c0.2,0.1,0.3,0.3,0.4,0.6
	c0.1,0.3,0.1,0.6,0.1,1.1c0,0.8-0.1,1.3-0.3,1.7c-0.2,0.4-0.6,0.5-1,0.5c-0.2,0-0.4,0-0.5-0.1c-0.2-0.1-0.3-0.2-0.4-0.4
	c-0.1-0.2-0.2-0.4-0.2-0.6C98.9,125.8,98.9,125.5,98.9,125.3L98.9,125.3z M99.4,125.1c0,0.4,0,0.7,0.1,1c0.1,0.3,0.1,0.5,0.3,0.6
	c0.1,0.1,0.3,0.2,0.4,0.2c0.2,0,0.3-0.1,0.4-0.2c0.1-0.1,0.2-0.3,0.2-0.6s0.1-0.6,0.1-1c0-0.6-0.1-1.1-0.2-1.4
	c-0.1-0.3-0.3-0.5-0.6-0.5c-0.2,0-0.4,0.1-0.6,0.4C99.5,123.8,99.4,124.3,99.4,125.1z"/>
<path class="st1" d="M16.7,16.7h155.6v155.6H16.7V16.7L16.7,16.7z M18.1,18.1v152.7h152.7V18.1H18.1z"/>
</svg>
